<svg xmlns="http://www.w3.org/2000/svg" viewBox="0 0 20 20" width="20" height="20">
<path d="M3.65 3.84C3.67 3.41 3.67 2.96 3.91 2.59C4.07 2.34 4.36 2.09 4.64 1.98C5.14 1.8 8.52 1.79 9.21 1.82C9.81 1.86 11.65 1.76 12.06 1.9C12.4 2.02 13.46 3.17 13.78 3.49C14.24 3.96 15.99 5.6 16.21 6.06C16.24 6.14 16.27 6.25 16.27 6.34C16.3 7.04 16.27 7.74 16.27 8.44C16.27 9.85 16.27 11.25 16.27 12.66C16.27 13.42 16.27 14.18 16.3 14.94C16.31 15.26 16.34 15.59 16.32 15.91C16.29 16.6 16.29 17.33 15.66 17.77C15.36 17.98 15 18.05 14.64 18.1C14.15 18.16 13.65 18.12 13.16 18.1C12.48 18.08 11.79 18.1 11.11 18.1C9.71 18.1 8.16 18.2 6.76 18.13C6.36 18.1 5.96 18.11 5.56 18.08C4.83 18.01 4.54 18.07 4.03 17.46C3.71 17.09 3.69 16.57 3.65 16.11C3.61 15.7 3.67 15.28 3.67 14.86C3.67 13.54 3.7 12.21 3.7 10.89C3.7 9.37 3.75 7.85 3.7 6.34C3.67 5.51 3.6 4.67 3.65 3.84ZM10.95 3.21C9.73 3.15 8.5 3.23 7.29 3.23C6.76 3.23 6.22 3.13 5.69 3.18C5.53 3.19 5.38 3.21 5.24 3.28C5.18 3.33 5.13 3.39 5.11 3.46C4.96 4.05 5.1 5.52 5.1 6.21C5.1 8.6 5.1 11 5.1 13.39C5.1 14.31 4.99 15.35 5.08 16.26C5.09 16.43 5.12 16.57 5.25 16.68C6.54 16.94 8.62 16.74 10.01 16.75C11.36 16.76 13.04 16.87 14.36 16.75C14.54 16.73 14.7 16.72 14.85 16.62C14.95 16.29 14.87 15.95 14.9 15.61C14.98 14.77 14.93 13.91 14.93 13.06C14.93 11.83 14.91 10.59 14.9 9.36C14.89 8.75 14.92 8.13 14.9 7.51C14.89 7.34 14.86 7.17 14.86 7.01C14.27 7.07 13.63 7.05 13.04 7C12.71 6.97 12.38 6.98 12.06 6.87C10.63 6.38 10.95 4.41 10.95 3.21ZM12.34 4C12.31 4.43 12.2 5.16 12.43 5.53C12.75 5.75 13.56 5.67 13.94 5.64C13.42 5.08 12.88 4.54 12.34 4ZM6.08 9.46C6.18 7.55 9.1 7.32 10.51 7.4C11.51 7.46 13.5 7.76 13.84 8.91C14.01 9.5 13.99 11.48 13.95 12.16C13.91 12.82 14.03 13.78 13.87 14.39C13.47 15.89 10.74 16.12 9.51 16.05C8.45 15.99 6.52 15.69 6.16 14.46C6 13.92 6.05 12.53 6.1 11.94C6.17 11.14 6.03 10.28 6.08 9.46ZM12.51 9.4C11.72 8.64 8.25 8.56 7.56 9.43C8.41 10.26 10.98 10.05 12.01 9.67C12.19 9.6 12.35 9.5 12.51 9.4ZM12.5 10.98C10.86 11.55 9.14 11.57 7.5 10.99C7.49 11.23 7.46 11.5 7.6 11.7C8.42 12.47 11.73 12.48 12.45 11.59C12.51 11.39 12.51 11.19 12.5 10.98ZM12.52 13.17C11.1 13.71 8.9 13.97 7.51 13.26C7.5 13.53 7.47 13.81 7.55 14.07C8.4 14.82 11.84 14.91 12.44 14.04C12.58 13.83 12.53 13.41 12.52 13.17Z" fill="currentColor"/>
</svg>
