<svg xmlns="http://www.w3.org/2000/svg" viewBox="0 0 20 20" width="20" height="20">
<path d="M2 13.44C2.12 11.39 2.05 9.32 2.05 7.26C2.05 6.59 1.95 5.25 2.11 4.66C2.22 4.23 2.53 3.88 2.94 3.69C3.47 3.46 6.82 3.55 7.59 3.57C8.67 3.61 9.78 3.59 10.86 3.55C11.91 3.51 12.96 3.55 14.01 3.55C14.63 3.55 15.25 3.52 15.86 3.55C16.56 3.59 17.22 3.6 17.64 4.26C17.78 4.49 17.85 4.75 17.87 5.01C17.95 5.88 17.91 6.79 17.88 7.66C17.85 8.27 17.88 8.88 17.88 9.49C17.88 10.62 17.9 11.75 17.9 12.89C17.9 13.3 17.92 13.72 17.9 14.14C17.86 14.9 17.88 15.7 17.14 16.14C16.81 16.34 16.43 16.34 16.06 16.37C14.99 16.47 13.91 16.29 12.84 16.33C10.74 16.4 8.63 16.35 6.54 16.33C5.62 16.32 4.7 16.43 3.79 16.38C2.37 16.29 2.07 15.68 2.02 14.36C2.01 14.06 1.98 13.75 2 13.44ZM16.39 5.03C15.76 4.85 14.83 4.98 14.16 5C13.54 5.02 12.91 5.01 12.29 5C10 4.98 7.7 4.92 5.41 5C4.79 5.02 4.15 4.96 3.54 5.07C3.43 5.28 3.42 5.51 3.4 5.74C3.38 5.98 3.42 6.22 3.42 6.46C3.44 6.93 3.42 7.4 3.42 7.86C3.42 9.77 3.36 11.68 3.42 13.59C3.44 14 3.39 14.45 3.51 14.85C3.74 14.94 3.97 14.95 4.21 14.97C4.91 15.04 5.62 14.93 6.31 14.93C9.16 14.93 12.02 15.03 14.86 14.93C15.34 14.91 15.93 14.98 16.39 14.85C16.46 14.66 16.48 14.46 16.5 14.26C16.55 13.7 16.48 12.78 16.48 12.16C16.48 10.99 16.63 5.75 16.39 5.03ZM5.28 7.56C5.32 6.71 6.08 6.02 6.94 6.05C7.78 6.08 8.5 6.84 8.47 7.69C8.45 8.55 7.68 9.29 6.81 9.25C5.93 9.21 5.22 8.45 5.28 7.56ZM8.56 11.34C8.82 11.13 9.02 10.84 9.23 10.59C9.71 10.01 10.66 8.8 11.41 8.63C11.7 8.57 11.99 8.64 12.24 8.78C12.81 9.12 15.52 12.37 15.86 13.01C15.93 13.14 15.9 14.1 15.9 14.29C15.54 14.36 15.17 14.31 14.81 14.33C14.22 14.35 13.61 14.35 13.01 14.35C10.94 14.35 8.86 14.35 6.79 14.33C6.01 14.32 5 14.44 4.26 14.37C4.19 14.37 4.13 14.34 4.06 14.31C4.03 14.18 3.98 13.36 4.01 13.26C4.1 12.99 6.18 10.79 6.49 10.61C6.75 10.45 7.03 10.38 7.34 10.43C7.82 10.5 8.23 11.03 8.56 11.34ZM11.64 10.12C11.07 10.49 9.92 11.81 9.51 12.39C9.67 12.6 10.32 13.35 10.54 13.44C10.82 13.55 14.02 13.54 14.43 13.47C13.99 12.82 12.19 10.53 11.64 10.12ZM7.12 11.95C6.62 12.41 6.09 12.91 5.7 13.47C6.68 13.48 7.65 13.49 8.63 13.47C8.18 12.93 7.69 12.36 7.12 11.95Z" fill="currentColor"/>
</svg>
