<?xml version="1.0" encoding="UTF-8" standalone="no"?>
<svg
   viewBox="0 0 500 500"
   version="1.1"
   id="svg13"
   sodipodi:docname="idyllium.svg"
   xml:space="preserve"
   width="500"
   height="500"
   inkscape:version="1.2.2 (b0a8486541, 2022-12-01)"
   inkscape:export-filename="idyl2.png"
   inkscape:export-xdpi="49.152"
   inkscape:export-ydpi="49.152"
   xmlns:inkscape="http://www.inkscape.org/namespaces/inkscape"
   xmlns:sodipodi="http://sodipodi.sourceforge.net/DTD/sodipodi-0.dtd"
   xmlns:xlink="http://www.w3.org/1999/xlink"
   xmlns="http://www.w3.org/2000/svg"
   xmlns:svg="http://www.w3.org/2000/svg"><sodipodi:namedview
     id="namedview15"
     pagecolor="#ffffff"
     bordercolor="#666666"
     borderopacity="1.0"
     inkscape:showpageshadow="2"
     inkscape:pageopacity="0.0"
     inkscape:pagecheckerboard="0"
     inkscape:deskcolor="#d1d1d1"
     showgrid="false"
     inkscape:zoom="1.1596551"
     inkscape:cx="162.54833"
     inkscape:cy="198.766"
     inkscape:window-width="1920"
     inkscape:window-height="1001"
     inkscape:window-x="0"
     inkscape:window-y="0"
     inkscape:window-maximized="1"
     inkscape:current-layer="svg13" /><defs
     id="defs7"><linearGradient
       inkscape:collect="always"
       id="linearGradient991"><stop
         style="stop-color:#27227a;stop-opacity:1;"
         offset="0"
         id="stop987" /><stop
         style="stop-color:#e91e8f;stop-opacity:1;"
         offset="1"
         id="stop989" /></linearGradient><linearGradient
       id="grad"
       x1="0"
       y1="0"
       x2="0"
       y2="1"><stop
         offset="0%"
         stop-color="#27227A"
         id="stop2" /><stop
         offset="100%"
         stop-color="#E91E8F"
         id="stop4" /></linearGradient><linearGradient
       inkscape:collect="always"
       xlink:href="#linearGradient991"
       id="linearGradient993"
       x1="266.56329"
       y1="3.4877751"
       x2="266.56329"
       y2="493.81036"
       gradientUnits="userSpaceOnUse"
       gradientTransform="translate(5.7268686,0.18056698)" /></defs><!-- Точка --><!-- Основной штрих --><path
     style="fill:url(#linearGradient993);fill-opacity:1;stroke-width:1.05408"
     d="m 207.49285,498.00089 c -11.48291,-3.22693 -20.98041,-11.10342 -26.35317,-21.85527 -4.59876,-9.20293 -5.64078,-16.06961 -4.99545,-32.919 0.90824,-23.71427 7.33261,-51.3065 27.98618,-120.19888 24.70778,-82.41563 29.00713,-105.79527 21.54835,-117.17881 -3.82216,-5.83335 -15.29522,-7.28274 -26.94085,-3.40342 -17.20794,5.7322 -45.11416,23.52063 -70.58985,44.99651 -5.07274,4.2763 -9.22317,7.4726 -9.22317,7.1029 0,-1.17276 6.39473,-10.20128 14.5569,-20.55244 10.7316,-13.60965 43.23448,-45.7738 58.7014,-58.08961 22.34374,-17.79162 37.43139,-27.41394 53.25104,-33.96148 23.91674,-9.89882 47.92627,-9.11801 60.89208,1.98024 5.06825,4.33823 10.27607,14.25284 11.81343,22.49032 1.32635,7.10686 1.31358,22.4319 -0.0273,32.76531 -1.73414,13.36392 -15.88098,73.05806 -33.18746,140.03809 -14.25451,55.16825 -14.58821,71.37551 -1.60435,77.92288 20.00123,10.08603 55.54004,-14.51339 88.64181,-61.35648 4.72814,-6.69094 8.77691,-12.16534 8.99725,-12.16534 0.9879,0 -4.51811,13.30675 -10.6857,25.82487 -7.67705,15.58181 -17.43378,31.45894 -28.93901,47.09246 -8.68908,11.80687 -32.53531,37.01877 -44.21798,46.7503 -18.70366,15.57996 -40.15066,28.4202 -55.39223,33.16313 -9.79478,3.04798 -26.25597,3.79512 -34.23192,1.55372 z M 259.11703,111.09616 C 234.1264,104.4629 216.95398,82.178036 216.95398,56.380641 c 0,-15.56332 5.26872,-27.95751 16.83889,-39.611974 C 245.58682,4.888807 257.07387,0.02415742 273.38912,7.2119344e-5 288.40388,-0.02209388 301.62334,5.0656741 311.7308,14.756609 c 18.42411,17.664874 23.11991,44.014227 11.98147,67.231126 -3.90848,8.146813 -15.77125,20.038155 -24.266,24.324455 -12.34971,6.23144 -27.91823,8.07823 -40.32924,4.78397 z"
     id="path310" /></svg>
